<svg width="49" height="48" viewBox="0 0 49 48" fill="none" xmlns="http://www.w3.org/2000/svg">
<g clip-path="url(#clip0)">
<path d="M47.467 25.747C51.102 12.625 44.814 0 33.795 0C27.698 0 25.095 3.504 18.398 11.663C11.7 19.822 2.15 8.478 0.5 25.747C1.886 41.66 19.152 56.064 27.168 42.774C34.466 30.674 43.833 38.868 47.468 25.747H47.467Z" fill="#E6F1F9"/>
<path d="M28.423 19.0002C27.868 19.0002 27.5 19.3682 27.5 19.9232V29.5002C27.5 29.9622 27.868 30.4232 28.423 30.4232C28.607 28.8552 29.838 27.5002 31.501 27.5002C33.163 27.5002 34.317 28.8382 34.501 30.5002H35.501C36.056 30.5002 36.501 30.0942 36.501 29.5382V24.9232C36.501 24.0932 35.751 23.0772 35.751 23.0772L33.731 19.9622C33.269 19.4062 32.991 19.0382 32.346 19.0382L28.423 19.0002ZM29.501 21.0002H32.501L34.567 24.0872C34.751 24.3642 35 24.7222 35 25.0002H29.5L29.501 21.0002ZM16.501 29.0002C15.328 29.0002 14.501 29.8282 14.501 31.0002C14.501 32.1722 15.329 33.0002 16.501 33.0002C17.673 33.0002 18.501 32.1722 18.501 31.0002C18.501 29.8282 17.671 29.0002 16.501 29.0002ZM31.501 29.0002C30.329 29.0002 29.501 29.8282 29.501 31.0002C29.501 32.1722 30.329 33.0002 31.501 33.0002C32.673 33.0002 33.501 32.1722 33.501 31.0002C33.501 29.8282 32.672 29.0002 31.501 29.0002ZM20.5 31.0002C20.5 29.8282 21.328 29.0002 22.5 29.0002C23.672 29.0002 24.5 29.8282 24.5 31.0002C24.5 32.1722 23.672 33.0002 22.5 33.0002C21.329 33.0002 20.5 32.1722 20.5 31.0002ZM14.053 21.0002C13.7065 20.7192 13.4638 20.3305 13.3636 19.8958C13.2634 19.4612 13.3114 19.0054 13.5 18.6012L14.614 16.2112C14.8025 15.807 15.1208 15.4774 15.5181 15.2748C15.9155 15.0723 16.3691 15.0083 16.807 15.0932L20.862 15.8792C21.0222 15.9101 21.178 15.9604 21.326 16.0292L25.019 17.7512C25.1904 17.8311 25.3443 17.9441 25.4721 18.0835C25.5998 18.223 25.6988 18.3863 25.7634 18.564C25.8281 18.7417 25.8571 18.9305 25.8487 19.1194C25.8404 19.3083 25.795 19.4938 25.715 19.6652L23.223 25.2052C23.143 25.3766 23.0301 25.5305 22.8906 25.6582C22.7511 25.786 22.5879 25.885 22.4102 25.9496C22.2324 26.0142 22.0437 26.0432 21.8548 26.0349C21.6658 26.0266 21.4804 25.9812 21.309 25.9012L17.617 24.1792C17.4686 24.1102 17.3292 24.0232 17.202 23.9202L14.053 21.0002Z" fill="#036FC7"/>
<path d="M13 27C12.445 27 12.5 27.445 12.5 28V29.5C12.5 30.055 12.445 30.462 13 30.462H13.5V28H25.5V30.462L25.715 30.423C26.27 30.423 26.5 30.055 26.5 29.5V28C26.5 27.445 26.055 27 25.5 27H13Z" fill="#036FC7"/>
</g>
<defs>
<clipPath id="clip0">
<rect width="48" height="48" fill="white" transform="translate(0.5)"/>
</clipPath>
</defs>
</svg>
