<svg width="49" height="48" viewBox="0 0 49 48" fill="none" xmlns="http://www.w3.org/2000/svg">
<g clip-path="url(#clip0)">
<path d="M1.533 25.747C-2.102 12.625 4.186 0 15.205 0C21.302 0 23.905 3.504 30.602 11.663C37.3 19.822 46.85 8.478 48.5 25.747C47.114 41.66 29.848 56.064 21.832 42.774C14.534 30.674 5.167 38.868 1.532 25.747H1.533Z" fill="#E6F1F9"/>
<path d="M12.5 12V20H14.5V19H20.5C20.7652 19 21.0196 19.1054 21.2071 19.2929C21.3946 19.4804 21.5 19.7348 21.5 20V30C21.5 32.75 23.75 35 26.5 35H34.5V36H36.5V28H34.5V29H28.5C28.2348 29 27.9804 28.8946 27.7929 28.7071C27.6054 28.5196 27.5 28.2652 27.5 28V18C27.5 15.25 25.25 13 22.5 13H14.5V12H12.5ZM14.5 15H22.5C24.169 15 25.5 16.331 25.5 18V23H23.5V19C23.5 17.907 22.593 17 21.5 17H14.5V15ZM23.5 25H25.5V29C25.5 30.093 26.407 31 27.5 31H34.5V33H26.5C24.831 33 23.5 31.669 23.5 30V25Z" fill="#036FC7"/>
<path d="M20.5 23H28.5V26H20.5V23Z" fill="#036FC7"/>
</g>
<defs>
<clipPath id="clip0">
<rect width="48" height="48" fill="white" transform="translate(0.5)"/>
</clipPath>
</defs>
</svg>
