<svg width="49" height="48" viewBox="0 0 49 48" fill="none" xmlns="http://www.w3.org/2000/svg">
<g clip-path="url(#clip0)">
<path d="M47.467 25.747C51.102 12.625 44.814 0 33.795 0C27.698 0 25.095 3.504 18.398 11.663C11.7 19.822 2.15 8.478 0.5 25.747C1.886 41.66 19.152 56.064 27.168 42.774C34.466 30.674 43.833 38.868 47.468 25.747H47.467Z" fill="#E6F1F9"/>
<mask id="mask0" mask-type="alpha" maskUnits="userSpaceOnUse" x="12" y="14" width="25" height="20">
<path d="M35.5 14H13.5C12.9477 14 12.5 14.4477 12.5 15V33C12.5 33.5523 12.9477 34 13.5 34H35.5C36.0523 34 36.5 33.5523 36.5 33V15C36.5 14.4477 36.0523 14 35.5 14Z" fill="white"/>
</mask>
<g mask="url(#mask0)">
<path d="M35.5 14H13.5C12.9477 14 12.5 14.4477 12.5 15V33C12.5 33.5523 12.9477 34 13.5 34H35.5C36.0523 34 36.5 33.5523 36.5 33V15C36.5 14.4477 36.0523 14 35.5 14Z" stroke="#036FC7" stroke-width="4"/>
<path d="M12.5 20H28.5V22H12.5V20ZM12.5 26H19.5V28H12.5V26Z" fill="#036FC7"/>
<path d="M18.5 15H20.5V21H18.5V15ZM23.5 21H25.5V26H23.5V21ZM28.5 15H30.5V21H28.5V15Z" fill="#036FC7"/>
<path d="M35.5 32V18C28.5 18 30 21.5 28.5 24C27 26.5 24.14 25.472 21.5 26C19 26.5 19 31 19 33H34.5C34.7652 33 35.0196 32.8946 35.2071 32.7071C35.3946 32.5196 35.5 32.2652 35.5 32Z" stroke="#036FC7" stroke-width="2"/>
</g>
</g>
<defs>
<clipPath id="clip0">
<rect width="48" height="48" fill="white" transform="translate(0.5)"/>
</clipPath>
</defs>
</svg>
