<svg width="49" height="48" viewBox="0 0 49 48" fill="none" xmlns="http://www.w3.org/2000/svg">
<g clip-path="url(#clip0)">
<path d="M47.467 25.747C51.102 12.625 44.814 0 33.795 0C27.698 0 25.095 3.504 18.398 11.663C11.7 19.822 2.15 8.478 0.5 25.747C1.886 41.66 19.152 56.064 27.168 42.774C34.466 30.674 43.833 38.868 47.468 25.747H47.467Z" fill="#E6F1F9"/>
<path fill-rule="evenodd" clip-rule="evenodd" d="M12.5 14H14.5V21H21.5V14H23.5V22C23.5 22.2652 23.3946 22.5196 23.2071 22.7071C23.0196 22.8946 22.7652 23 22.5 23H13.5C13.2348 23 12.9804 22.8946 12.7929 22.7071C12.6054 22.5196 12.5 22.2652 12.5 22V14ZM25.5 14H27.5V21H34.5V14H36.5V22C36.5 22.2652 36.3946 22.5196 36.2071 22.7071C36.0196 22.8946 35.7652 23 35.5 23H26.5C26.2348 23 25.9804 22.8946 25.7929 22.7071C25.6054 22.5196 25.5 22.2652 25.5 22V14ZM12.5 25H14.5V32H21.5V25H23.5V33C23.5 33.2652 23.3946 33.5196 23.2071 33.7071C23.0196 33.8946 22.7652 34 22.5 34H13.5C13.2348 34 12.9804 33.8946 12.7929 33.7071C12.6054 33.5196 12.5 33.2652 12.5 33V25ZM25.5 25H27.5V32H34.5V25H36.5V33C36.5 33.2652 36.3946 33.5196 36.2071 33.7071C36.0196 33.8946 35.7652 34 35.5 34H26.5C26.2348 34 25.9804 33.8946 25.7929 33.7071C25.6054 33.5196 25.5 33.2652 25.5 33V25Z" fill="#036FC7"/>
</g>
<defs>
<clipPath id="clip0">
<rect width="48" height="48" fill="white" transform="translate(0.5)"/>
</clipPath>
</defs>
</svg>
