<svg width="49" height="48" viewBox="0 0 49 48" fill="none" xmlns="http://www.w3.org/2000/svg">
<g clip-path="url(#clip0)">
<path d="M33.795 48C44.814 48 51.102 35.375 47.467 22.253C43.833 9.13096 34.466 17.326 27.167 5.22596C19.154 -8.06404 1.887 6.33896 0.5 22.253C1.03 30.835 8.43 48 33.795 48Z" fill="#E6F1F9"/>
<path d="M13.25 35.2502V25.1622C14.353 24.5752 16.71 23.6592 19.41 23.6592C21.126 23.6592 22.56 24.6672 24.293 25.8842L24.296 25.8862C25.952 27.0502 27.866 28.3862 30.318 28.3862C32.743 28.3862 34.564 27.5222 35.75 26.5962V35.2502H13.25Z" stroke="#036FC7" stroke-width="1.5"/>
<path d="M17.5 15C17.5 14.7348 17.6054 14.4804 17.7929 14.2929C17.9804 14.1054 18.2348 14 18.5 14C18.7652 14 19.0196 14.1054 19.2071 14.2929C19.3946 14.4804 19.5 14.7348 19.5 15V23.16L17.5 24V15ZM23.5 13C23.5 12.7348 23.6054 12.4804 23.7929 12.2929C23.9804 12.1054 24.2348 12 24.5 12C24.7652 12 25.0196 12.1054 25.2071 12.2929C25.3946 12.4804 25.5 12.7348 25.5 13V26L23.5 25.006V13ZM29.5 15C29.5 14.7348 29.6054 14.4804 29.7929 14.2929C29.9804 14.1054 30.2348 14 30.5 14C30.7652 14 31.0196 14.1054 31.2071 14.2929C31.3946 14.4804 31.5 14.7348 31.5 15V28H29.5V15Z" fill="#036FC7"/>
<path d="M13.5 17C13.5 16.7348 13.6054 16.4804 13.7929 16.2929C13.9804 16.1054 14.2348 16 14.5 16H34.5C34.7652 16 35.0196 16.1054 35.2071 16.2929C35.3946 16.4804 35.5 16.7348 35.5 17C35.5 17.2652 35.3946 17.5196 35.2071 17.7071C35.0196 17.8946 34.7652 18 34.5 18H14.5C14.2348 18 13.9804 17.8946 13.7929 17.7071C13.6054 17.5196 13.5 17.2652 13.5 17ZM13.5 21C13.5 20.7348 13.6054 20.4804 13.7929 20.2929C13.9804 20.1054 14.2348 20 14.5 20H34.5C34.7652 20 35.0196 20.1054 35.2071 20.2929C35.3946 20.4804 35.5 20.7348 35.5 21C35.5 21.2652 35.3946 21.5196 35.2071 21.7071C35.0196 21.8946 34.7652 22 34.5 22H14.5C14.2348 22 13.9804 21.8946 13.7929 21.7071C13.6054 21.5196 13.5 21.2652 13.5 21ZM15.5 27H17.5V29H15.5V27ZM16.5 31H18.5V33H16.5V31ZM21.5 29H23.5V31H21.5V29ZM27.5 31H29.5V33H27.5V31ZM31.5 30H33.5V32H31.5V30Z" fill="#036FC7"/>
</g>
<defs>
<clipPath id="clip0">
<rect width="48" height="48" fill="white" transform="translate(0.5)"/>
</clipPath>
</defs>
</svg>
