<svg width="49" height="48" viewBox="0 0 49 48" fill="none" xmlns="http://www.w3.org/2000/svg">
<g clip-path="url(#clip0)">
<path d="M33.795 48C44.814 48 51.102 35.375 47.467 22.253C43.833 9.13096 34.466 17.326 27.167 5.22596C19.154 -8.06404 1.887 6.33896 0.5 22.253C1.03 30.835 8.43 48 33.795 48Z" fill="#E6F1F9"/>
<path d="M14.515 14V27.203C13.418 27.836 12.5 29.03 12.5 30.363C12.5 32.362 14.164 34 16.192 34H27.27C29.298 34 30.962 32.361 30.962 30.364C30.9578 29.722 30.7791 29.0932 30.445 28.545L33 28.5V30.364C33 32.36 34.472 34 36.5 34V32.5C35.47 32.5 34.5 31.379 34.5 30.364V23H33V26.756L29.555 26.727L30.961 23.26V21.273H27.27V18.546C27.27 18.032 27.672 17.636 28.193 17.636V15.818C26.675 15.818 25.424 17.05 25.424 18.546V21.273H24.218L21.447 14H14.515ZM16.192 15.818H20.168L22.245 21.273H16.192V15.818ZM16.192 23.091H29.042L27.5 26.727H16.192V23.091ZM16.192 28.546H27.27C28.301 28.546 29.116 29.349 29.116 30.364C29.116 31.379 28.301 32.182 27.27 32.182H16.192C15.162 32.182 14.346 31.379 14.346 30.364C14.346 29.349 15.162 28.546 16.192 28.546ZM16.192 29.455C15.947 29.455 15.712 29.55 15.54 29.721C15.368 29.892 15.27 30.123 15.27 30.364C15.27 30.605 15.367 30.836 15.54 31.007C15.714 31.1783 15.9483 31.2743 16.1925 31.2743C16.4367 31.2743 16.671 31.1783 16.845 31.007C16.9303 30.9231 16.9981 30.823 17.0443 30.7126C17.0906 30.6022 17.1144 30.4837 17.1144 30.364C17.1144 30.2443 17.0906 30.1258 17.0443 30.0154C16.9981 29.905 16.9303 29.8049 16.845 29.721C16.6707 29.5501 16.4361 29.4545 16.192 29.455ZM19.885 29.455C19.6408 29.4543 19.4062 29.5499 19.232 29.721C19.1468 29.805 19.0791 29.9051 19.033 30.0155C18.9868 30.1259 18.963 30.2443 18.963 30.364C18.963 30.4837 18.9868 30.6021 19.033 30.7125C19.0791 30.8229 19.1468 30.923 19.232 31.007C19.406 31.1783 19.6403 31.2743 19.8845 31.2743C20.1287 31.2743 20.363 31.1783 20.537 31.007C20.6223 30.9231 20.6901 30.823 20.7363 30.7126C20.7826 30.6022 20.8064 30.4837 20.8064 30.364C20.8064 30.2443 20.7826 30.1258 20.7363 30.0154C20.6901 29.905 20.6223 29.8049 20.537 29.721C20.3629 29.5503 20.1288 29.4548 19.885 29.455ZM23.577 29.455C23.3328 29.4543 23.0982 29.5499 22.924 29.721C22.8388 29.805 22.7711 29.9051 22.725 30.0155C22.6788 30.1259 22.655 30.2443 22.655 30.364C22.655 30.4837 22.6788 30.6021 22.725 30.7125C22.7711 30.8229 22.8388 30.923 22.924 31.007C23.098 31.1786 23.3326 31.2748 23.577 31.2748C23.8214 31.2748 24.056 31.1786 24.23 31.007C24.3153 30.9231 24.3831 30.823 24.4293 30.7126C24.4756 30.6022 24.4994 30.4837 24.4994 30.364C24.4994 30.2443 24.4756 30.1258 24.4293 30.0154C24.3831 29.905 24.3153 29.8049 24.23 29.721C24.0557 29.5501 23.8211 29.4545 23.577 29.455ZM27.269 29.455C27.0248 29.4543 26.7902 29.5499 26.616 29.721C26.5308 29.805 26.4631 29.9051 26.417 30.0155C26.3708 30.1259 26.347 30.2443 26.347 30.364C26.347 30.4837 26.3708 30.6021 26.417 30.7125C26.4631 30.8229 26.5308 30.923 26.616 31.007C26.79 31.1786 27.0246 31.2748 27.269 31.2748C27.5134 31.2748 27.748 31.1786 27.922 31.007C28.0073 30.9231 28.0751 30.823 28.1213 30.7126C28.1676 30.6022 28.1914 30.4837 28.1914 30.364C28.1914 30.2443 28.1676 30.1258 28.1213 30.0154C28.0751 29.905 28.0073 29.8049 27.922 29.721C27.7477 29.5501 27.5131 29.4545 27.269 29.455Z" fill="#036FC7"/>
</g>
<defs>
<clipPath id="clip0">
<rect width="48" height="48" fill="white" transform="translate(0.5)"/>
</clipPath>
</defs>
</svg>
