<svg width="102" height="78" viewBox="0 0 102 78" fill="none" xmlns="http://www.w3.org/2000/svg">
<path d="M80.7664 21.3108L80.7688 21.3084L80.7664 21.3108ZM80.7664 21.3108C77.7525 24.3688 75.4109 27.6074 73.7677 31.0307C72.1121 34.4799 70.9884 38.843 70.3518 44.0677L70.2152 45.1886L70.1469 45.749M80.7664 21.3108L70.1469 45.749M70.1469 45.749H70.7115M70.1469 45.749H70.7115M70.7115 45.749H71.8407M70.7115 45.749H71.8407M93.5355 49.9959L93.5301 49.9913L93.5195 49.9824L93.5355 49.9959ZM93.5355 49.9959L93.5411 50.0004M93.5355 49.9959L93.5411 50.0004M93.5411 50.0004L93.5528 50.0097L93.5542 50.0107M93.5411 50.0004L93.5542 50.0107M93.5542 50.0107C96.8625 52.6214 98.605 56.5259 98.605 61.994C98.605 65.6902 97.1308 69.2369 94.0004 72.6644L94.0003 72.6644M93.5542 50.0107L94.0003 72.6644M94.0003 72.6644L93.9983 72.6668M94.0003 72.6644L93.9983 72.6668M93.9983 72.6668C93.9973 72.6679 93.9963 72.669 93.9953 72.6701C91.1072 75.8442 87.0689 77.4995 81.6786 77.4995C73.0412 77.4995 67.1886 74.8541 63.7052 69.8655C60.0751 64.5671 58.1936 57.548 58.1936 48.6853C58.1936 42.5145 59.5944 36.9526 62.3759 31.9669L62.3764 31.966M93.9983 72.6668L62.3764 31.966M62.3764 31.966L62.3803 31.9591L62.3816 31.9566M62.3764 31.966L62.3816 31.9566M62.3816 31.9566C65.2296 26.7553 68.6832 22.14 72.7416 18.1045M62.3816 31.9566L72.7416 18.1045M71.8407 45.749H79.3362M71.8407 45.749H79.3362M79.3362 45.749C85.5636 45.749 90.2281 47.2223 93.5187 49.9817L79.3362 45.749ZM72.7416 18.1045C76.9342 13.9406 81.3734 10.415 86.0583 7.5216C90.2405 4.9388 93.8209 2.77344 96.8013 1.02416L100.793 7.32398C96.5275 9.67328 93.0078 11.7514 90.2422 13.5568C87.1071 15.5039 83.9503 18.0947 80.7691 21.308L72.7416 18.1045ZM23.0753 21.3082L23.0752 21.3084L23.0728 21.3108C20.0589 24.3688 17.7173 27.6074 16.0741 31.0307C14.4185 34.4799 13.2948 38.843 12.6582 44.0677L12.5216 45.1886L12.4533 45.749H13.0179H14.1471H21.6426C27.8705 45.749 32.5352 47.2225 35.8259 49.9824L35.8365 49.9913L35.8419 49.996L35.8475 50.0004L35.8592 50.0097L35.8606 50.0107C39.1689 52.6214 40.9114 56.5259 40.9114 61.994C40.9114 65.6902 39.4372 69.2369 36.3068 72.6644L36.3067 72.6644L36.3047 72.6668C36.3036 72.668 36.3025 72.6692 36.3014 72.6704C33.4134 75.8443 29.3751 77.4995 23.985 77.4995C15.3476 77.4995 9.49497 74.8541 6.01157 69.8654C2.3815 64.5671 0.5 57.548 0.5 48.6853C0.5 42.5145 1.90085 36.9526 4.68231 31.9669L4.68284 31.966L4.68668 31.9591L4.68805 31.9566C7.53609 26.7552 10.9897 22.1398 15.0482 18.1043C19.2408 13.9404 23.6799 10.4149 28.3647 7.5216C32.5469 4.9388 36.1273 2.77344 39.1077 1.02416L43.0992 7.32398C38.8339 9.67328 35.3142 11.7514 32.5486 13.5568C29.4134 15.5039 26.2566 18.0948 23.0753 21.3082Z" stroke="#DADEDF"/>
</svg>
