<svg width="49" height="48" viewBox="0 0 49 48" fill="none" xmlns="http://www.w3.org/2000/svg">
<g clip-path="url(#clip0)">
<path d="M47.467 25.747C51.102 12.625 44.814 0 33.795 0C27.698 0 25.095 3.504 18.398 11.663C11.7 19.822 2.15 8.478 0.5 25.747C1.886 41.66 19.152 56.064 27.168 42.774C34.466 30.674 43.833 38.868 47.468 25.747H47.467Z" fill="#E6F1F9"/>
<path d="M13.5 12H15.5V35H13.5V12ZM33.5 12H35.5V35H33.5V12Z" fill="#036FC7"/>
<path d="M12.5 34H16.5V36H12.5V34ZM32.5 34H36.5V36H32.5V34ZM13.5 14H35.5V16H13.5V14ZM13.5 29H34.5V31H13.5V29Z" fill="#036FC7"/>
<path d="M14.5 16L34.5 29M14.5 29L34.5 16L14.5 29Z" stroke="#036FC7" stroke-width="2" stroke-linejoin="bevel"/>
</g>
<defs>
<clipPath id="clip0">
<rect width="48" height="48" fill="white" transform="translate(0.5)"/>
</clipPath>
</defs>
</svg>
