<svg width="49" height="48" viewBox="0 0 49 48" fill="none" xmlns="http://www.w3.org/2000/svg">
<g clip-path="url(#clip0)">
<path d="M1.533 25.747C-2.102 12.625 4.186 0 15.205 0C21.302 0 23.905 3.504 30.602 11.663C37.3 19.822 46.85 8.478 48.5 25.747C47.114 41.66 29.848 56.064 21.832 42.774C14.534 30.674 5.167 38.868 1.532 25.747H1.533Z" fill="#E6F1F9"/>
<path d="M15.5 13C14.9 13 14.5 13.4 14.5 14V20C14.5 20.6 14.9 21 15.5 21H30.5C31.1 21 31.5 20.6 31.5 20V18H32.5V23H24.5C23.407 23 22.5 23.907 22.5 25V27C21.9 27 21.5 27.4 21.5 28V34C21.5 34.6 21.9 35 22.5 35H24.5C25.1 35 25.5 34.6 25.5 34V28C25.5 27.4 25.1 27 24.5 27V25H32.5C33.593 25 34.5 24.093 34.5 23V18C34.5 16.907 33.593 16 32.5 16H31.5V14C31.5 13.4 31.1 13 30.5 13H15.5ZM16.5 15H29.5V19H16.5V15Z" fill="#036FC7"/>
</g>
<defs>
<clipPath id="clip0">
<rect width="48" height="48" fill="white" transform="translate(0.5)"/>
</clipPath>
</defs>
</svg>
