<svg width="49" height="48" viewBox="0 0 49 48" fill="none" xmlns="http://www.w3.org/2000/svg">
<g clip-path="url(#clip0)">
<path d="M1.533 25.747C-2.102 12.625 4.186 0 15.205 0C21.302 0 23.905 3.504 30.602 11.663C37.3 19.822 46.85 8.478 48.5 25.747C47.114 41.66 29.848 56.064 21.832 42.774C14.534 30.674 5.167 38.868 1.532 25.747H1.533Z" fill="#E6F1F9"/>
<path d="M21.227 12L20.137 14H12.5V16H14.5L15.5 34C15.656 35.2 16.676 36 18.018 36H30.954C32.297 36 33.344 35.2 33.5 34L34.5 16H36.5V14H28.864L27.773 12H21.227ZM16.5 16H32.5L31.5 34H17.5L16.5 16ZM20.5 19L21.227 28.5C21.227 29.162 21.825 30 22.561 30H23.5V19H20.5ZM25.5 19V30H26.682C27.418 30 27.772 29.162 27.772 28.5L28.5 19H25.5Z" fill="#036FC7"/>
</g>
<defs>
<clipPath id="clip0">
<rect width="48" height="48" fill="white" transform="translate(0.5)"/>
</clipPath>
</defs>
</svg>
