<?xml version="1.0" standalone="no"?>
<!DOCTYPE svg PUBLIC "-//W3C//DTD SVG 20010904//EN"
 "http://www.w3.org/TR/2001/REC-SVG-20010904/DTD/svg10.dtd">
<svg version="1.0" xmlns="http://www.w3.org/2000/svg"
 width="1408.000000pt" height="1408.000000pt" viewBox="0 0 1408.000000 1408.000000"
 preserveAspectRatio="xMidYMid meet">
<metadata>
Created by potrace 1.11, written by Peter Selinger 2001-2013
</metadata>
<g transform="translate(0.000000,1408.000000) scale(0.100000,-0.100000)"
fill="#000000" stroke="none">
<path d="M6923 14062 c-84 -126 -174 -259 -180 -267 -20 -25 -93 -136 -93
-141 0 -3 -18 -29 -40 -59 -22 -30 -40 -58 -40 -63 0 -4 -8 -17 -18 -28 -9
-10 -33 -44 -52 -74 -19 -30 -37 -57 -40 -60 -3 -3 -30 -43 -60 -90 -30 -47
-57 -87 -60 -90 -4 -3 -17 -23 -30 -45 -13 -22 -26 -42 -30 -45 -3 -3 -30 -43
-60 -89 -30 -46 -61 -90 -68 -98 -7 -7 -11 -13 -8 -13 3 0 -26 -45 -64 -101
-39 -55 -70 -102 -70 -105 0 -3 -18 -29 -40 -59 -22 -30 -40 -58 -40 -63 0 -4
-8 -17 -18 -28 -9 -10 -33 -44 -52 -74 -19 -30 -37 -57 -40 -60 -3 -3 -30 -43
-60 -90 -30 -47 -57 -87 -60 -90 -3 -3 -29 -41 -57 -85 -29 -44 -56 -84 -60
-90 -5 -5 -24 -35 -43 -65 -19 -30 -37 -57 -40 -60 -3 -3 -16 -22 -29 -43 -13
-21 -28 -43 -35 -50 -7 -6 -14 -16 -16 -22 -5 -16 -73 -118 -92 -139 -10 -11
-18 -25 -18 -32 0 -7 -7 -17 -16 -22 -9 -5 -15 -12 -15 -15 1 -9 -88 -145
-111 -171 -10 -11 -18 -25 -18 -32 0 -7 -7 -17 -16 -22 -9 -5 -15 -12 -14 -16
1 -4 -6 -17 -14 -29 -9 -12 -75 -110 -146 -217 -71 -107 -133 -200 -138 -206
-5 -5 -15 -21 -22 -34 -7 -13 -17 -29 -22 -34 -5 -6 -67 -99 -138 -206 -71
-107 -133 -199 -137 -205 -4 -5 -33 -48 -63 -95 -30 -47 -58 -86 -62 -88 -5
-2 -8 -10 -8 -17 0 -7 -3 -15 -7 -17 -5 -1 -33 -41 -63 -87 -30 -46 -60 -90
-68 -97 -7 -7 -13 -17 -14 -21 0 -4 -19 -35 -42 -68 -22 -33 -45 -68 -51 -77
-13 -22 -252 -380 -262 -393 -10 -12 -44 -63 -58 -87 -17 -28 -253 -382 -263
-394 -5 -5 -15 -21 -22 -34 -7 -13 -17 -29 -22 -34 -5 -6 -67 -99 -138 -206
-71 -107 -133 -200 -138 -206 -5 -5 -15 -21 -22 -35 -7 -13 -16 -26 -19 -29
-4 -3 -30 -41 -59 -85 -71 -109 -75 -116 -88 -129 -6 -6 -10 -13 -10 -16 0 -8
-77 -123 -96 -144 -10 -11 -18 -25 -18 -32 0 -7 -7 -17 -16 -22 -9 -5 -14 -11
-12 -14 1 -3 -5 -16 -15 -29 -10 -13 -76 -112 -147 -219 -71 -107 -133 -200
-138 -206 -5 -5 -15 -21 -22 -34 -7 -13 -17 -29 -22 -34 -5 -6 -67 -99 -138
-206 -71 -107 -133 -199 -138 -205 -20 -25 -23 -37 -11 -52 7 -8 18 -24 24
-34 9 -18 218 -332 274 -412 14 -21 31 -45 36 -55 6 -9 36 -55 68 -102 68
-101 79 -118 126 -190 20 -30 39 -56 44 -58 4 -2 7 -10 7 -17 0 -7 3 -15 8
-17 7 -3 72 -95 72 -102 0 -3 35 -55 78 -118 42 -62 83 -126 91 -141 8 -15 18
-27 23 -27 4 0 8 -5 8 -11 0 -6 13 -28 30 -49 16 -21 30 -41 30 -44 0 -7 40
-66 51 -76 3 -3 16 -23 29 -45 13 -22 30 -46 37 -53 7 -7 13 -17 13 -22 0 -5
6 -15 13 -22 23 -25 57 -77 57 -88 0 -5 3 -10 8 -10 4 0 18 -20 32 -45 14 -25
28 -45 31 -45 4 0 12 -14 19 -30 7 -17 16 -30 21 -30 5 0 9 -6 9 -13 0 -8 9
-22 20 -32 11 -10 20 -24 20 -32 0 -7 5 -13 10 -13 6 0 10 -7 10 -15 0 -8 4
-15 9 -15 5 0 11 -8 15 -18 5 -15 60 -97 86 -129 5 -7 10 -14 10 -16 0 -3 19
-33 43 -67 23 -34 47 -69 52 -78 6 -9 18 -25 28 -36 9 -11 17 -24 17 -29 0 -5
13 -26 30 -47 16 -21 30 -41 30 -44 0 -3 22 -37 50 -76 27 -39 50 -72 50 -75
0 -2 27 -43 60 -90 33 -47 60 -90 60 -95 0 -6 4 -10 9 -10 5 0 14 -14 21 -30
7 -16 16 -30 21 -30 5 0 9 -5 9 -10 0 -9 35 -65 50 -80 3 -3 10 -12 15 -21 6
-10 25 -38 43 -63 17 -26 32 -50 32 -53 0 -3 14 -22 30 -43 17 -21 30 -41 30
-45 0 -4 13 -24 30 -45 16 -21 30 -43 30 -49 0 -6 4 -11 9 -11 5 0 14 -13 21
-30 7 -16 16 -30 21 -30 5 0 9 -5 9 -10 0 -9 35 -65 50 -80 3 -3 10 -12 15
-21 6 -9 24 -36 40 -60 17 -24 32 -48 35 -54 12 -23 66 -100 73 -103 4 -2 7
-10 7 -18 0 -8 5 -14 10 -14 6 0 10 -4 10 -10 0 -8 57 -98 71 -110 3 -3 16
-23 29 -45 13 -22 26 -42 29 -45 4 -3 11 -12 16 -21 6 -10 25 -38 43 -63 17
-26 32 -50 32 -53 0 -3 14 -22 30 -43 17 -21 30 -41 30 -46 0 -4 18 -31 40
-60 22 -29 40 -58 40 -64 0 -5 5 -10 10 -10 6 0 10 -5 10 -11 0 -6 13 -28 30
-49 16 -21 30 -43 30 -49 0 -6 4 -11 9 -11 5 0 14 -13 21 -29 6 -16 20 -38 30
-48 10 -11 25 -33 34 -49 16 -27 56 -87 74 -109 4 -5 19 -28 32 -50 13 -22 28
-41 32 -43 4 -2 8 -10 8 -17 0 -7 3 -15 8 -17 8 -4 52 -65 52 -73 0 -3 5 -11
10 -18 22 -26 160 -234 175 -262 8 -17 26 -43 40 -58 14 -15 23 -27 20 -27 -3
0 3 -10 15 -22 11 -12 20 -26 20 -30 0 -8 38 -67 51 -78 3 -3 16 -23 29 -45
13 -22 30 -46 37 -53 7 -7 13 -17 13 -22 0 -5 6 -15 13 -22 18 -20 77 -107 77
-115 0 -3 18 -30 40 -59 22 -29 40 -58 40 -64 0 -5 5 -10 10 -10 6 0 10 -6 10
-13 0 -8 9 -22 20 -32 11 -10 20 -24 20 -32 0 -7 5 -13 10 -13 6 0 10 -7 10
-15 0 -8 4 -15 9 -15 5 0 11 -8 15 -17 5 -16 60 -98 86 -130 5 -7 10 -14 10
-16 0 -3 19 -33 43 -67 23 -34 47 -69 52 -78 6 -9 18 -25 28 -36 9 -11 17 -24
17 -28 0 -8 38 -67 51 -78 3 -3 16 -23 29 -45 13 -22 30 -46 37 -53 7 -7 13
-17 13 -22 0 -5 6 -15 13 -22 15 -16 67 -94 85 -128 7 -14 22 -34 33 -46 10
-11 19 -26 19 -32 0 -7 5 -12 11 -12 5 0 8 -4 5 -9 -3 -5 1 -11 9 -15 8 -3 15
-12 15 -21 0 -8 4 -15 9 -15 5 0 13 -9 16 -20 3 -11 12 -26 18 -33 20 -21 77
-107 77 -115 0 -5 8 -17 18 -28 10 -10 29 -37 42 -59 13 -22 30 -46 37 -53 7
-7 13 -18 13 -23 0 -18 29 -9 35 11 3 11 11 20 16 20 5 0 8 3 7 8 -2 6 147
237 162 252 3 3 25 37 50 75 25 39 47 72 50 75 3 3 17 23 30 45 13 22 26 42
30 45 3 3 39 57 80 120 41 63 83 124 93 134 9 11 17 25 17 32 0 7 3 14 8 16 6
3 103 143 111 162 2 4 34 53 72 108 38 54 69 101 69 104 0 3 18 29 40 59 22
30 40 56 40 59 0 5 60 96 70 106 10 10 80 120 80 125 -1 3 6 12 14 20 8 8 24
31 37 52 13 21 26 40 29 43 3 3 17 23 30 45 13 22 26 42 30 45 3 3 34 50 70
105 36 55 67 102 70 105 3 3 30 43 60 90 30 47 57 87 60 90 3 3 21 30 40 60
19 30 39 60 45 67 26 32 31 38 31 43 -1 7 66 104 77 111 5 3 7 8 6 10 -2 2 17
33 41 69 25 36 49 72 55 81 5 9 31 48 56 85 25 38 46 73 47 77 1 4 7 14 14 22
23 25 33 39 68 95 19 30 37 57 40 60 3 3 30 43 60 90 30 47 57 87 60 90 4 3
17 23 30 45 13 22 26 42 30 45 3 3 30 43 60 89 30 46 61 90 68 98 7 7 11 13 8
13 -3 0 17 33 45 73 27 39 54 79 59 87 6 8 55 82 110 164 55 82 100 152 100
156 0 3 8 15 18 26 18 20 114 162 121 179 2 6 21 33 43 62 21 29 38 55 38 58
0 3 12 23 28 44 15 21 33 47 39 57 7 11 31 45 53 77 22 32 40 60 40 63 0 3 18
29 40 59 22 30 40 57 40 60 0 3 18 30 40 60 22 30 40 58 40 63 0 4 8 17 18 28
9 10 33 44 52 74 19 30 37 57 40 60 3 3 30 43 60 90 30 47 57 87 60 90 3 3 21
30 40 60 19 30 39 60 45 67 5 7 16 19 23 28 7 8 10 15 7 15 -3 0 13 25 35 55
22 30 40 56 40 59 0 4 88 137 107 161 4 6 46 69 93 140 47 72 87 132 90 135
12 11 84 125 82 128 -2 2 6 12 18 22 12 10 21 21 21 24 -1 8 69 116 92 140 9
11 17 26 17 33 0 8 7 16 15 19 8 4 13 9 10 14 -2 4 3 16 13 26 10 10 33 44 52
74 19 30 37 57 40 60 3 3 30 43 60 90 30 47 57 87 60 90 4 3 17 23 30 45 13
22 26 42 29 45 15 13 125 186 123 193 -1 4 2 7 7 7 8 0 41 46 61 85 11 22 105
160 112 166 5 3 -7 27 -25 55 -19 27 -47 69 -63 94 -16 25 -31 47 -34 50 -13
13 -70 101 -70 108 0 5 -8 17 -17 28 -30 34 -63 83 -63 94 0 5 -3 10 -8 10 -4
0 -18 20 -32 45 -14 25 -28 45 -32 45 -5 0 -8 4 -8 10 0 5 -22 41 -50 80 -27
39 -50 75 -50 80 0 6 -3 10 -8 10 -4 0 -18 20 -31 45 -13 25 -27 45 -31 45 -4
0 -13 14 -20 30 -7 17 -16 30 -21 30 -5 0 -9 5 -9 10 0 12 -41 73 -52 78 -5 2
-8 10 -8 18 0 8 -4 14 -10 14 -5 0 -10 5 -10 11 0 6 -13 28 -30 49 -16 21 -30
41 -30 44 0 6 -38 64 -50 76 -15 15 -69 100 -74 118 -4 11 -13 23 -21 26 -8 3
-15 12 -15 21 0 8 -4 15 -10 15 -5 0 -10 6 -10 13 0 8 -9 22 -20 32 -11 10
-20 22 -20 26 0 9 -57 95 -77 116 -6 7 -15 22 -18 33 -3 11 -11 20 -16 20 -5
0 -9 4 -9 9 0 4 -28 50 -62 100 -35 51 -67 100 -73 109 -5 9 -22 33 -37 53
-16 20 -28 40 -28 45 0 4 -18 31 -40 60 -22 29 -40 58 -40 64 0 5 -4 10 -10
10 -5 0 -10 5 -10 11 0 6 -13 28 -30 49 -16 21 -30 42 -30 47 0 5 -8 18 -17
29 -18 20 -23 27 -63 89 -10 17 -24 35 -29 42 -6 7 -11 16 -11 21 0 4 -8 17
-18 28 -9 10 -33 44 -52 74 -19 30 -38 57 -42 58 -5 2 -8 10 -8 18 0 8 -3 14
-8 14 -4 0 -16 17 -27 37 -11 20 -25 41 -30 47 -6 6 -22 29 -35 51 -13 22 -30
46 -37 53 -7 7 -13 17 -13 22 0 5 -6 15 -13 22 -7 7 -24 31 -37 53 -13 22 -27
42 -30 45 -3 3 -21 30 -40 60 -19 30 -38 57 -42 58 -5 2 -8 10 -8 17 0 7 -3
15 -7 17 -7 3 -61 80 -73 103 -7 13 -83 129 -90 135 -11 11 -70 101 -70 107 0
3 -18 30 -40 59 -22 29 -40 56 -40 59 0 3 -12 23 -27 44 -16 21 -35 49 -43 61
-8 12 -27 40 -42 61 -16 21 -28 43 -28 47 0 5 -8 17 -18 28 -10 10 -29 37 -42
59 -13 22 -27 42 -30 45 -3 3 -21 30 -40 60 -19 30 -38 57 -42 58 -5 2 -8 10
-8 18 0 8 -3 14 -7 14 -5 0 -24 27 -43 60 -19 33 -38 60 -42 60 -5 0 -8 6 -8
13 0 8 -9 22 -20 32 -11 10 -20 24 -20 32 0 7 -4 13 -9 13 -5 0 -15 12 -22 28
-19 37 -72 116 -81 120 -5 2 -8 10 -8 18 0 8 -4 14 -10 14 -5 0 -10 4 -10 10
0 8 -57 98 -71 110 -3 3 -16 23 -29 45 -13 22 -26 42 -29 45 -4 3 -10 12 -16
21 -5 10 -25 38 -42 63 -18 26 -33 50 -33 53 0 3 -13 22 -30 43 -16 21 -30 41
-30 46 0 4 -18 31 -40 60 -22 29 -40 58 -40 64 0 5 -4 10 -10 10 -5 0 -10 6
-10 13 0 8 -9 22 -20 32 -11 10 -20 24 -20 32 0 7 -4 13 -10 13 -5 0 -10 7
-10 15 0 8 -3 15 -8 15 -4 0 -18 20 -31 45 -13 25 -28 45 -32 45 -5 0 -9 6 -9
14 0 8 -3 16 -7 18 -9 4 -73 96 -73 105 0 3 -18 30 -40 59 -22 29 -40 58 -40
64 0 5 -4 10 -10 10 -5 0 -10 5 -10 10 0 10 -37 67 -51 80 -3 3 -16 23 -29 45
-13 22 -30 46 -37 53 -7 7 -13 17 -13 22 0 5 -6 15 -13 22 -7 7 -24 31 -37 53
-13 22 -27 42 -30 45 -3 3 -21 30 -40 60 -19 30 -38 57 -42 58 -5 2 -8 10 -8
18 0 8 -3 14 -8 14 -4 0 -16 16 -26 35 -11 19 -22 35 -26 35 -4 0 -10 8 -13
18 -2 9 -55 91 -116 181 -61 90 -111 167 -111 172 0 5 -4 9 -9 9 -5 0 -14 14
-21 30 -7 17 -16 30 -20 30 -4 0 -10 8 -14 18 -3 9 -16 31 -28 48 -26 36 -232
344 -280 419 -18 28 -35 52 -38 55 -3 3 -17 23 -30 45 -13 22 -31 50 -40 62
-15 19 -17 20 -27 5z m27 -665 c0 -7 9 -23 20 -35 12 -12 17 -22 13 -22 -4 0
-3 -4 3 -8 10 -7 90 -123 128 -186 10 -17 22 -32 27 -34 5 -2 9 -10 9 -18 0
-8 5 -14 10 -14 6 0 10 -4 10 -9 0 -9 137 -219 165 -253 8 -10 11 -18 7 -18
-4 0 1 -5 11 -11 9 -5 17 -17 17 -24 0 -8 5 -15 10 -15 6 0 10 -6 10 -14 0 -7
7 -19 15 -26 9 -7 23 -28 31 -46 9 -19 20 -34 25 -34 5 0 9 -7 9 -15 0 -8 5
-15 10 -15 6 0 10 -6 11 -12 0 -7 20 -40 44 -73 24 -33 52 -75 61 -92 9 -18
20 -33 25 -33 5 0 9 -6 9 -14 0 -7 7 -20 16 -27 9 -7 19 -20 23 -29 10 -25
144 -225 153 -228 4 -2 8 -8 8 -13 0 -8 139 -219 151 -229 3 -3 8 -9 10 -15 6
-14 282 -429 290 -435 3 -3 13 -18 22 -35 8 -16 23 -40 34 -52 10 -12 32 -45
48 -72 17 -28 33 -51 38 -51 4 0 7 -5 7 -10 0 -6 16 -33 35 -60 19 -27 35 -52
35 -55 0 -3 11 -18 25 -33 14 -15 25 -30 25 -35 0 -7 37 -64 50 -77 3 -3 11
-17 18 -31 8 -14 23 -38 35 -52 12 -14 36 -49 52 -76 17 -28 33 -51 38 -51 4
0 7 -6 7 -13 0 -7 8 -22 18 -33 11 -11 21 -24 23 -29 9 -21 103 -160 113 -167
7 -5 7 -8 1 -8 -6 0 -6 -3 1 -8 6 -4 42 -54 79 -112 38 -58 73 -106 77 -108 4
-2 8 -10 8 -17 0 -8 8 -19 18 -24 9 -6 14 -11 10 -11 -4 0 22 -43 57 -95 36
-52 65 -97 65 -100 0 -6 11 -20 38 -50 6 -7 12 -18 12 -24 0 -6 5 -11 10 -11
6 0 10 -6 10 -13 0 -7 12 -28 28 -47 15 -19 34 -47 41 -62 8 -16 18 -28 23
-28 4 0 8 -7 8 -15 0 -8 5 -15 10 -15 6 0 10 -6 11 -12 0 -7 20 -40 44 -73 24
-33 52 -75 61 -92 9 -18 20 -33 25 -33 5 0 9 -7 9 -15 0 -8 5 -15 10 -15 6 0
10 -4 10 -10 0 -9 95 -155 126 -192 7 -10 10 -18 6 -18 -4 0 -2 -4 4 -8 5 -4
32 -41 60 -82 27 -41 52 -76 57 -78 4 -2 7 -7 7 -12 0 -11 82 -134 93 -138 4
-2 7 -10 7 -18 0 -8 5 -14 11 -14 5 0 8 -4 5 -9 -4 -5 -3 -11 2 -13 8 -3 112
-154 112 -163 0 -6 11 -20 38 -50 6 -7 12 -16 12 -18 0 -9 104 -162 112 -165
4 -2 8 -8 8 -14 0 -8 55 -93 70 -108 3 -3 11 -17 19 -32 8 -16 18 -28 23 -28
4 0 8 -5 8 -10 0 -6 16 -33 35 -60 19 -27 35 -54 35 -60 0 -5 4 -10 10 -10 5
0 16 -15 25 -34 9 -18 25 -43 35 -54 11 -12 20 -26 20 -32 0 -5 3 -10 8 -10 4
0 13 -13 20 -28 6 -16 21 -38 32 -50 11 -12 20 -24 20 -27 0 -3 16 -28 35 -55
19 -27 35 -52 35 -55 0 -6 11 -20 38 -50 6 -7 12 -17 12 -20 0 -7 60 -96 71
-105 3 -3 8 -9 10 -15 8 -20 103 -160 111 -163 4 -2 8 -8 8 -13 0 -5 16 -32
35 -59 19 -27 35 -52 35 -55 0 -6 11 -20 38 -50 6 -7 12 -16 12 -19 0 -9 104
-161 112 -164 5 -2 8 -9 8 -16 0 -7 8 -21 19 -32 18 -20 17 -23 -80 -170 -55
-82 -106 -158 -114 -169 -7 -11 -79 -119 -159 -240 -80 -121 -150 -225 -154
-230 -23 -28 -112 -167 -112 -175 0 -5 -4 -10 -8 -12 -4 -1 -66 -90 -137 -197
-72 -107 -133 -199 -137 -205 -4 -7 -88 -11 -233 -12 l-227 -1 -10 26 c-6 14
-12 31 -13 36 0 6 -4 17 -8 25 -3 8 -25 74 -48 145 -22 72 -45 139 -49 150 -5
11 -30 85 -56 165 l-46 146 -372 -1 c-204 0 -378 1 -386 3 -13 3 -15 120 -14
984 l1 980 -44 27 c-25 14 -71 45 -104 69 -32 23 -63 42 -69 42 -5 0 -10 4
-10 8 0 5 -19 19 -42 32 -24 13 -45 26 -48 30 -3 4 -115 80 -250 170 -255 170
-302 202 -310 210 -3 3 -16 11 -30 18 -69 36 -63 -4 -64 465 l-1 423 -27 25
c-14 13 -46 40 -69 59 -24 19 -53 44 -66 55 -12 11 -35 30 -50 42 -15 12 -47
39 -70 60 -36 33 -61 54 -120 100 -9 7 -13 19 -10 28 4 8 3 15 -1 15 -9 0 -8
102 2 118 4 6 4 12 -1 12 -10 0 -9 203 1 219 4 6 4 11 -1 11 -10 0 -9 222 1
238 4 7 4 12 -1 12 -4 0 -7 20 -7 45 2 38 -5 54 -47 115 -27 40 -49 74 -49 76
0 3 -11 17 -25 32 -14 15 -25 32 -25 39 0 7 -4 13 -10 13 -5 0 -10 6 -10 14 0
8 -4 16 -8 18 -5 2 -41 53 -82 113 -41 61 -77 112 -80 115 -15 14 -70 100 -70
109 0 6 -4 11 -8 11 -5 0 -15 12 -23 28 -29 56 -51 66 -70 30 -6 -12 -16 -27
-20 -32 -22 -27 -99 -137 -99 -141 0 -3 -16 -26 -35 -52 -19 -27 -39 -52 -43
-58 -4 -5 -36 -54 -72 -107 -36 -54 -68 -98 -72 -98 -5 0 -8 -4 -8 -10 0 -5
-24 -43 -52 -82 l-53 -73 -3 -370 c-3 -358 -3 -370 -23 -388 -12 -11 -55 -49
-98 -84 -42 -36 -90 -77 -107 -91 -17 -15 -55 -47 -84 -72 -29 -25 -66 -56
-81 -70 l-29 -25 0 -190 c-2 -417 2 -629 9 -610 5 11 7 28 5 38 -1 9 0 17 5
17 4 0 7 10 8 23 1 12 4 33 7 47 3 14 9 39 12 55 3 17 10 50 15 75 6 25 13 59
15 75 3 17 7 37 11 45 3 8 7 31 10 50 3 19 10 43 15 53 5 10 7 21 5 24 -3 2
-1 19 4 36 5 18 19 77 30 132 12 55 22 107 24 115 2 8 4 20 4 26 1 13 69 88
215 238 53 54 96 100 96 101 0 1 36 40 80 85 44 45 80 87 80 92 0 5 3 7 8 5 4
-2 25 17 47 44 22 26 46 48 54 48 8 1 11 7 7 17 -3 9 -2 12 5 9 13 -8 41 14
33 26 -3 5 -1 8 5 7 15 -4 72 35 67 47 -2 6 4 11 13 11 14 0 16 -21 15 -201
l-2 -201 135 -105 c74 -57 140 -109 147 -114 6 -6 27 -22 46 -35 19 -14 44
-32 55 -42 11 -9 63 -50 115 -90 l95 -74 2 -257 c1 -153 -2 -257 -8 -257 -5 0
-9 5 -9 10 0 6 -6 10 -13 10 -8 0 -22 9 -32 20 -10 11 -22 20 -26 20 -11 0
-133 83 -137 93 -2 4 -10 7 -17 7 -7 0 -15 3 -17 8 -1 4 -28 23 -58 42 -56 35
-70 45 -95 68 -7 6 -16 12 -19 12 -3 0 -39 23 -79 50 -41 28 -76 50 -78 50 -3
0 -5 -875 -5 -1945 1 -1070 -1 -1951 -4 -1958 -4 -10 -121 -13 -548 -14 -298
0 -545 -3 -549 -6 -3 -4 -10 -4 -16 0 -8 5 -92 8 -99 3 -10 -6 -49 -5 -59 0
-6 4 -26 4 -44 0 -19 -4 -37 -4 -42 0 -4 5 -27 5 -51 1 -23 -5 -45 -4 -48 0
-3 5 -13 5 -23 0 -9 -5 -23 -6 -30 -1 -8 4 -27 4 -42 0 -16 -5 -29 -5 -29 0 0
4 -17 4 -37 -1 -22 -5 -39 -4 -41 1 -2 5 -10 6 -18 3 -23 -9 -124 -9 -124 0 0
5 -5 5 -12 1 -17 -11 -58 -11 -58 -1 0 4 -5 5 -12 1 -16 -10 -128 -11 -155 -2
-13 4 -23 4 -23 0 0 -7 -58 -8 -85 -2 -5 1 -12 1 -15 0 -3 -1 -263 -3 -578 -4
l-573 -3 -17 29 c-9 15 -20 28 -24 28 -4 0 -8 6 -8 13 0 7 -8 22 -18 33 -9 10
-23 31 -31 47 -8 15 -18 27 -23 27 -4 0 -8 5 -8 10 0 6 -16 33 -35 60 -19 27
-35 52 -35 56 0 3 -6 12 -13 19 -26 30 -37 44 -37 49 0 9 -104 161 -112 164
-5 2 -8 9 -8 16 0 7 -8 21 -17 32 -24 27 -42 55 -49 77 -4 9 -10 17 -15 17 -4
0 -15 15 -24 34 -9 18 -25 43 -35 54 -11 12 -20 26 -20 32 0 5 -3 10 -8 10 -4
0 -13 13 -20 28 -6 16 -21 38 -32 50 -11 12 -20 24 -20 27 0 3 -16 28 -35 55
-19 27 -35 52 -35 55 0 6 -11 20 -38 50 -6 7 -12 17 -13 22 0 4 -16 28 -34 53
-19 25 -42 60 -51 78 -9 17 -20 32 -25 32 -5 0 -9 7 -9 15 0 8 -4 15 -10 15
-5 0 -10 6 -10 14 0 8 -6 21 -14 29 -8 8 -24 29 -35 47 l-20 33 22 31 c12 17
25 33 30 34 4 2 5 8 1 13 -3 5 -1 9 3 9 5 0 22 23 38 50 16 28 33 50 38 50 4
0 6 4 3 9 -4 5 -3 11 2 13 4 1 31 39 60 83 28 44 55 85 60 90 4 6 30 44 57 85
26 41 53 78 59 82 7 5 7 8 1 8 -6 0 -6 3 1 8 5 4 52 70 102 147 51 77 99 149
107 160 7 11 79 119 159 240 81 121 154 230 163 243 9 12 35 53 59 90 23 37
49 76 58 87 9 11 45 65 80 120 36 55 71 107 79 116 8 9 25 35 37 58 13 22 28
41 32 41 5 0 7 4 4 9 -4 5 -3 11 2 13 4 1 22 26 39 53 18 28 39 59 47 70 9 11
54 79 101 150 47 72 93 140 102 153 9 12 35 53 59 90 24 37 50 76 58 87 8 11
53 79 100 150 47 72 90 135 94 140 5 6 25 36 46 69 20 32 41 63 46 69 6 7 57
84 115 172 57 88 108 165 112 170 5 6 30 44 58 85 27 41 53 77 57 78 5 2 6 8
2 13 -3 5 -1 9 4 9 5 0 17 16 28 35 10 19 22 35 26 35 5 0 8 6 8 14 0 8 6 21
13 28 14 15 1770 2647 1776 2663 2 5 7 12 10 15 4 3 24 33 46 67 38 58 65 79
65 50z m-165 -2638 c-9 -14 -9 -134 -1 -148 4 -6 4 -11 -1 -11 -4 0 -6 -27 -5
-59 3 -51 1 -62 -18 -78 -50 -42 -67 -56 -96 -83 l-31 -28 1 136 c1 76 6 144
11 153 12 18 132 129 141 129 3 0 2 -5 -1 -11z m362 -73 l63 -59 0 -134 c0
-73 -3 -133 -6 -133 -5 0 -93 71 -124 100 -13 13 -16 43 -18 159 -2 111 0 141
10 135 7 -5 41 -35 75 -68z m263 -2026 c3 -3 17 -11 33 -19 l27 -14 0 -293 0
-293 -85 38 c-47 21 -88 41 -93 45 -4 4 -7 142 -7 306 l-1 299 61 -32 c33 -17
62 -34 65 -37z m515 -294 c22 -12 43 -25 47 -30 10 -15 7 -516 -4 -516 -5 0
-30 10 -56 22 -26 12 -53 23 -61 24 -8 2 -17 7 -20 13 -5 7 -7 499 -2 535 1 4
13 0 28 -10 15 -9 46 -27 68 -38z m418 -230 c19 -13 43 -27 53 -30 18 -5 19
-20 18 -241 0 -129 -3 -238 -6 -240 -3 -3 -31 7 -62 23 l-58 29 1 186 c0 293
1 297 10 297 4 0 24 -11 44 -24z m-875 -945 c2 -275 1 -292 -15 -287 -10 3
-29 7 -43 10 -14 3 -42 10 -62 15 -21 5 -38 6 -38 3 0 -3 -6 0 -12 7 -10 9
-13 85 -13 310 l0 299 90 -32 90 -32 3 -293z m443 135 l64 -24 1 -262 1 -262
-21 7 c-11 3 -30 8 -41 10 -53 10 -80 17 -84 21 -6 6 -9 504 -3 522 6 16 10
16 83 -12z m501 -185 c2 -9 3 -115 3 -236 -1 -245 6 -225 -70 -210 -16 3 -36
7 -42 7 -7 1 -13 11 -14 22 -3 123 0 457 5 464 9 15 114 -27 118 -47z m-982
-876 c14 -2 28 -4 33 -4 4 -1 7 -131 7 -290 l0 -289 -52 -4 c-29 -1 -71 -1
-93 2 l-40 5 -1 290 c0 160 1 293 3 297 3 5 79 2 143 -7z m479 -52 c25 -1 50
-4 57 -7 9 -3 12 -71 11 -264 l0 -260 -64 -4 c-36 -2 -70 0 -76 4 -14 9 -18
517 -4 535 5 7 14 10 20 6 6 -4 31 -8 56 -10z m496 -53 c6 0 9 -83 8 -232 -1
-275 -1 -261 -12 -253 -5 3 -32 6 -60 6 -45 1 -51 4 -52 23 0 25 0 399 0 440
1 28 1 28 54 22 28 -3 57 -6 62 -6z"/>
<path d="M6911 10123 c-8 -3 -21 -12 -30 -19 -29 -24 -138 -109 -166 -128 -14
-11 -36 -28 -48 -38 -28 -23 -30 -24 -107 -83 -79 -61 -80 -62 -159 -124 l-63
-51 1 -217 c1 -120 1 -225 1 -233 -1 -45 -1 -53 5 -58 3 -4 9 -2 13 3 7 10
178 127 197 134 5 2 12 7 15 11 3 3 82 57 175 119 94 63 174 117 179 122 10 9
15 570 6 568 -3 0 -11 -3 -19 -6z"/>
<path d="M6485 8677 l-90 -52 0 -289 c0 -158 2 -289 5 -290 3 -2 44 15 92 38
l88 41 0 303 c0 166 -1 302 -2 302 -2 -1 -43 -24 -93 -53z"/>
<path d="M5610 8658 c-60 -37 -352 -227 -413 -269 -32 -21 -62 -39 -66 -39 -4
0 -16 -9 -26 -20 -10 -11 -24 -20 -30 -20 -10 0 -12 -210 -12 -950 -1 -523 1
-949 3 -947 4 3 12 74 19 162 2 28 6 73 9 100 4 28 8 73 11 100 2 28 7 68 9
90 7 51 17 166 21 230 2 28 4 50 5 50 1 0 4 16 6 35 5 56 13 141 19 197 3 28
7 73 9 100 13 151 18 202 22 233 2 19 6 60 9 90 3 30 7 73 9 95 3 22 8 72 11
110 12 129 -2 98 128 275 188 254 212 285 220 288 4 2 7 9 7 17 0 7 7 18 15
25 16 13 59 70 53 70 -2 0 -19 -10 -38 -22z"/>
<path d="M5994 8399 c-21 -12 -46 -27 -55 -35 -9 -8 -18 -11 -22 -8 -10 10
-28 -35 -23 -61 3 -14 0 -25 -5 -25 -6 0 -7 -5 -4 -10 4 -6 7 -108 6 -226 0
-244 -10 -225 87 -181 26 12 51 21 56 22 11 0 14 145 3 152 -4 2 -4 9 0 16 10
16 12 87 2 87 -5 0 -6 6 -3 14 9 24 10 117 2 122 -5 3 -5 10 -2 16 9 14 11
129 3 133 -3 3 -23 -5 -45 -16z"/>
<path d="M5525 8138 c-75 -39 -71 -22 -71 -280 1 -149 5 -233 11 -232 6 0 33
11 62 24 l52 25 0 242 c1 134 -3 243 -7 243 -4 -1 -25 -10 -47 -22z"/>
<path d="M6557 7543 c-4 -3 -41 -18 -84 -33 l-78 -28 -1 -291 c0 -325 -7 -294
64 -277 12 4 32 8 45 11 12 2 34 7 50 11 l27 6 0 298 c0 270 -4 323 -23 303z"/>
<path d="M5966 7335 c-38 -14 -70 -25 -72 -25 -1 0 -2 -116 -2 -257 -1 -173 3
-260 10 -264 6 -4 25 -3 42 3 17 5 45 12 61 15 17 3 32 6 33 8 8 7 6 125 -1
125 -5 0 -5 5 -1 12 10 15 11 269 1 275 -4 2 -4 9 0 16 10 16 12 87 2 87 -5 0
-6 7 -3 15 7 18 13 19 -70 -10z"/>
<path d="M5514 7178 l-61 -20 1 -233 c1 -128 4 -236 7 -239 3 -4 30 0 60 7
l54 14 2 247 c1 135 1 246 0 245 -1 0 -29 -10 -63 -21z"/>
<path d="M4300 6340 c-12 -3 -21 -9 -21 -15 1 -10 -15 -65 -26 -95 -4 -8 -5
-18 -5 -22 1 -5 -3 -8 -9 -8 -5 0 -8 -4 -5 -8 3 -5 -15 -67 -40 -138 -25 -71
-47 -136 -48 -144 -1 -8 -8 -28 -14 -44 -7 -16 -14 -38 -17 -50 -2 -11 -4 -22
-6 -23 -1 -2 -2 -6 -4 -10 -1 -5 -7 -21 -14 -37 -6 -16 -10 -34 -7 -40 2 -6 7
-2 12 9 4 11 10 22 14 25 5 4 70 129 134 257 10 21 23 41 28 44 5 3 9 9 7 13
-1 4 16 41 37 82 25 47 45 74 56 74 9 0 20 5 23 10 4 6 10 8 15 5 5 -3 28 -1
52 4 72 16 122 24 146 23 12 0 22 3 22 7 0 4 14 8 32 9 17 2 64 9 102 17 39 8
85 17 101 20 17 2 39 6 50 9 11 2 37 6 58 10 20 4 37 11 37 17 0 6 -7 6 -19
-1 -13 -6 -21 -6 -23 0 -2 7 -14 7 -36 1 -17 -5 -32 -7 -32 -3 0 6 -137 7
-165 2 -5 -1 -14 -1 -20 0 -24 5 -143 2 -154 -4 -6 -4 -11 -4 -11 1 0 9 -215
11 -250 3z"/>
<path d="M6516 6273 c-1 -1 -23 -3 -49 -4 -26 -2 -53 -6 -59 -10 -10 -6 -13
-76 -14 -294 0 -157 2 -285 5 -286 31 -4 71 -3 71 2 0 4 15 4 33 0 17 -4 42
-5 55 -3 l22 3 0 299 0 298 -31 -2 c-17 0 -31 -2 -33 -3z"/>
<path d="M6027 6224 c-3 -3 -29 -8 -59 -10 -29 -2 -58 -6 -64 -8 -9 -3 -12
-79 -12 -265 l-1 -260 37 -3 c20 -2 56 -1 79 0 39 4 42 6 32 24 -6 11 -7 18
-2 15 4 -3 8 19 8 49 0 30 -4 54 -8 54 -5 0 -5 5 -1 12 10 16 11 148 1 148 -5
0 -5 5 -1 12 8 13 9 226 2 234 -3 2 -7 1 -11 -2z"/>
<path d="M5474 6161 c-20 -6 -20 -12 -20 -240 l1 -235 27 -7 c16 -4 30 -4 33
0 2 4 18 6 34 3 l30 -4 0 246 -1 247 -41 -2 c-23 -2 -51 -5 -63 -8z"/>
<path d="M4066 5674 c-5 -14 -4 -15 9 -4 17 14 19 20 6 20 -5 0 -12 -7 -15
-16z"/>
</g>
</svg>
